<?xml version="1.0" encoding="utf-8"?>
<!-- Generator: Adobe Illustrator 16.0.2, SVG Export Plug-In . SVG Version: 6.00 Build 0)  -->
<!DOCTYPE svg PUBLIC "-//W3C//DTD SVG 1.1//EN" "http://www.w3.org/Graphics/SVG/1.1/DTD/svg11.dtd">
<svg version="1.1" xmlns="http://www.w3.org/2000/svg" xmlns:xlink="http://www.w3.org/1999/xlink" x="0px" y="0px"
	 width="149.167px" height="172.243px" viewBox="0 0 149.167 172.243" enable-background="new 0 0 149.167 172.243"
	 xml:space="preserve">
<g id="Layer_1">
	<polygon fill="#585858" points="149.917,129.183 75.333,172.243 0.75,129.183 0.75,43.061 75.333,0 149.917,43.061 	"/>
	<rect x="-60" y="-149" fill="none" width="105" height="97"/>
	<text transform="matrix(1 0 0 1 -60 -88.6289)" font-family="'Vivaldii'" font-size="72">G</text>
</g>
<g id="圖層_4" display="none">
	<path display="inline" fill="#FFFFFF" d="M41.88,77.75l25.09,26.784L54.889,77.75H41.88z M74.583,108.84L88.64,77.75H60.527
		L74.583,108.84z M55.009,72.594l8.217-15.466H52.673l-11.6,15.466H55.009z M82.196,104.534l25.091-26.784h-13.01L82.196,104.534z
		 M60.849,72.594h27.469l-8.217-15.466H69.065L60.849,72.594z M94.158,72.594h13.936l-11.6-15.466H85.942L94.158,72.594z
		 M99.835,53.02l15.467,20.621c0.376,0.483,0.55,1.04,0.523,1.671c-0.027,0.632-0.258,1.174-0.687,1.632l-38.664,41.243
		c-0.483,0.536-1.113,0.804-1.893,0.804c-0.778,0-1.408-0.268-1.892-0.804L34.026,76.944c-0.429-0.457-0.658-1-0.685-1.632
		c-0.027-0.631,0.147-1.188,0.523-1.671L49.331,53.02c0.484-0.699,1.168-1.047,2.054-1.047h46.398
		C98.667,51.973,99.353,52.322,99.835,53.02z"/>
</g>
<g id="圖層_6" display="none">
	<g display="inline">
		<path fill="#FFFFFF" stroke="#FFFFFF" stroke-miterlimit="10" d="M101.102,58.749h32.931
			c-5.515,25.75-15.776,45.842-30.782,60.274c-13.753,13.181-27.866,19.207-44.78,19.207c-6.644,0-16.797-2.149-26.296-7.035
			c-5.271-2.712-14.198-9.138-15.089-18.942C15.95,99.77,25.108,87.624,39.943,92.817c0,0-8.153-22.127,12.731-25.054
			c5.224-0.731,8.438,0.604,12.769,4.33c4.106,3.534,5.253,12.511,5.062,17.669l-0.765,11.46
			c-0.651,8.915,0.265,13.641,2.516,16.056c1.751,1.88,2.52,2.068,3.405,2.739c1.137,0.863,5.799,2.714,8.596-0.397
			c2.674-2.973,2.028-6.797,1.147-8.799c-0.278-0.63-1.72-3.343-3.535-3.726c-2.724-0.572-5.381,3.287-5.347,2.818
			c0.061-0.872,1.45-5.562,4.679-5.301c1.994,0.161,4.361,1.145,5.793,6.493c0,0,2.549,10.112-4.838,12.942
			c-3.462,1.326-13.529-1.432-14.134-16.331l0.191-12.225c-0.383-5.349-0.502-12.045-4.871-15.663
			c-5.553-4.62-12.331-2.363-13.784-1.633c-10.888,5.476-5.348,18.347-5.348,18.347s-11.605-3.841-17.018,4.684
			c-4.727,7.444-0.791,15.732,2.118,18.922c2.446,2.681,7.81,7.623,13.827,10.291c6.016,2.669,12.57,4.003,19.662,4.003
			c11.138,0,21.236-3.294,30.298-9.885c9.061-6.591,16.582-16.115,22.563-28.58c3.043-6.303,5.596-12.838,7.655-19.607
			c2.059-6.769,3.088-11.998,3.088-15.688h-9.938c1.825,1.647,2.739,3.761,2.739,6.339c0,4.835-2.561,9.635-7.683,14.397
			c-7.161,6.661-14.253,9.993-21.273,9.993c-5.192,0-9.392-1.604-12.598-4.808c-3.204-3.205-4.807-7.387-4.807-12.545
			c0-5.157,1.155-10.152,3.464-14.988c2.311-4.835,5.524-9.007,9.644-12.517c4.513-3.795,9.589-6.751,15.229-8.864
			c5.642-2.113,11.272-3.17,16.896-3.17c1.504,0,3.295,0.107,5.372,0.322l-3.6,12.732h-1.988l0.27-1.183
			c0.251-1.181,0.377-2.184,0.377-3.008c0-2.721-2.795-4.083-8.382-4.083c-5.873,0-11.174,1.308-15.901,3.921
			c-4.549,2.507-8.201,6.285-10.96,11.335c-2.757,5.05-4.136,10.494-4.136,16.331c0,4.942,1.389,8.892,4.163,11.846
			c2.775,2.955,6.493,4.432,11.148,4.432c5.119,0,9.58-1.809,13.377-5.426c3.796-3.617,5.693-7.878,5.693-12.786
			c0-5.515-3.652-8.273-10.959-8.273h-1.45V58.749z"/>
	</g>
</g>
<g id="圖層_7">
	<g>
		<path fill="#FFFFFF" d="M31.017,87.508c0-9.247,1.33-17.321,3.992-24.222c2.661-6.902,6.337-12.652,11.029-17.254
			c4.691-4.601,10.24-8.051,16.644-10.352c6.405-2.3,13.373-3.451,20.908-3.451c1.938,0,4.125,0.034,6.562,0.102
			s4.929,0.237,7.478,0.507c2.546,0.271,5.062,0.654,7.543,1.15c2.48,0.496,4.78,1.15,6.901,1.962
			c1.668,0.632,3.066,1.534,4.195,2.706c1.127,1.173,1.691,2.865,1.691,5.075c0,2.571-0.644,4.634-1.929,6.191
			c-1.285,1.556-2.786,2.334-4.499,2.334c-0.362,0-0.836-0.045-1.421-0.136c-0.587-0.089-1.082-0.248-1.487-0.473
			c-1.761-0.947-3.892-1.714-6.394-2.301c-2.505-0.586-5.089-1.06-7.748-1.421c-2.662-0.361-5.256-0.609-7.781-0.744
			c-2.526-0.135-4.691-0.203-6.496-0.203c-2.48,0-5.029,0.304-7.645,0.913c-2.617,0.609-5.176,1.567-7.68,2.876
			c-2.503,1.309-4.871,2.977-7.104,5.006c-2.232,2.03-4.184,4.443-5.853,7.24c-1.668,2.796-3,6.01-3.992,9.641
			c-0.992,3.631-1.488,7.702-1.488,12.212c0,5.278,0.619,9.947,1.86,14.006c1.24,4.06,2.943,7.59,5.108,10.589
			c2.166,2.999,4.713,5.526,7.646,7.578c2.932,2.053,6.101,3.709,9.507,4.973c3.404,1.264,6.958,2.164,10.655,2.707
			c3.699,0.54,7.396,0.812,11.097,0.812c1.624,0,3.462-0.034,5.515-0.103c2.051-0.066,4.094-0.28,6.123-0.642
			c0-4.42-0.013-8.188-0.033-11.3c-0.024-3.112-0.057-5.888-0.102-8.323c-0.046-2.435-0.102-4.668-0.17-6.696
			c-0.067-2.031-0.147-4.196-0.236-6.497c0-1.623-0.113-3.258-0.338-4.903c-0.228-1.646-0.338-3.418-0.338-5.312
			c0-0.677,0.145-1.409,0.44-2.199c0.291-0.789,0.764-1.533,1.419-2.233c0.654-0.699,1.523-1.285,2.605-1.759
			c1.082-0.474,2.435-0.71,4.059-0.71c2.661,0,4.725,0.621,6.191,1.861c1.465,1.241,2.199,2.921,2.199,5.041
			c0,0.902-0.023,1.771-0.068,2.604c-0.045,0.835-0.066,1.726-0.066,2.673c-0.047,1.443-0.102,3.191-0.169,5.242
			c-0.069,2.054-0.125,4.67-0.17,7.849c-0.046,3.182-0.091,7.037-0.135,11.57c-0.046,4.534-0.068,9.959-0.068,16.271
			c-0.045,2.571-0.384,4.58-1.015,6.023c-0.631,1.442-1.488,2.515-2.57,3.213c-1.083,0.699-2.335,1.116-3.756,1.252
			c-1.42,0.136-2.899,0.202-4.432,0.202c-1.309,0-2.685,0.067-4.127,0.203c-1.445,0.136-2.91,0.291-4.398,0.474
			c-1.488,0.18-2.942,0.338-4.364,0.474c-1.421,0.136-2.763,0.203-4.024,0.203c-9.608,0-18.1-1.42-25.475-4.262
			c-7.375-2.842-13.566-6.665-18.573-11.469c-5.007-4.805-8.796-10.374-11.367-16.712C32.302,101.233,31.017,94.544,31.017,87.508z"
			/>
	</g>
</g>
<g id="圖層_5" display="none">
	<g display="inline">
		<path fill="#163CF7" d="M75.18,101.205l4.398-8.063c5.568,4.791,9.117,9.986,10.647,15.588c1.39,5.129,0.981,9.713-1.225,13.756
			c-1.53,2.807-3.719,4.656-6.47,5.789c-3.229,1.33-3.754,1.545-6.617,0.428c-3.035-1.185-2.993-5.799-0.753-7.975
			c0,0-6.377-0.98-4.243-6.462c0.604-1.553,1.042-1.858,2.534-2.645c1.492-0.783,3.229-0.073,5.602-0.249l5.278-0.413
			c0.435-0.024,0.709-0.039,0.827-0.044c1.11-0.076,1.762-0.29,1.952-0.64c0.145-0.264,0.224-0.732,0.238-1.407l0.549,0.026
			l-0.036,0.287l-0.123,1.383c-0.023,0.296-0.055,0.819-0.091,1.573l-0.025,0.36l-0.257,0.031c-1.121,0.117-2.419,0.223-3.893,0.317
			l-2.366,0.143c-3.199,0.19-5.532,0.577-7.001,1.164c-1.873,0.743,0.068,1.188-0.745,2.679c-0.866,1.587,3.37,3.539,3.37,3.539
			s-2.301,4.085-0.624,4.998c2.278,1.245,2.562,2.128,4.112,1.73c1.694-0.435,3.313-1.009,4.771-2.126
			c1.457-1.117,2.658-2.544,3.606-4.279c1.487-2.729,2.029-5.641,1.628-8.74c-0.405-3.099-1.731-6.213-3.985-9.342
			c-1.137-1.587-2.395-3.085-3.778-4.493c-1.381-1.409-2.524-2.358-3.428-2.852l-1.328,2.434c0.648-0.228,1.286-0.169,1.919,0.176
			c1.185,0.646,2.018,1.914,2.499,3.804c0.675,2.644,0.542,4.825-0.395,6.545c-0.695,1.271-1.648,2.085-2.861,2.44
			c-1.213,0.357-2.451,0.191-3.714-0.498c-1.262-0.688-2.331-1.64-3.207-2.851c-0.875-1.212-1.467-2.555-1.775-4.033
			c-0.327-1.611-0.373-3.249-0.137-4.913c0.236-1.663,0.73-3.184,1.481-4.56c0.2-0.368,0.466-0.792,0.797-1.272l2.636,2.581
			l-0.266,0.487l-0.254-0.224c-0.256-0.219-0.484-0.383-0.687-0.494c-0.665-0.363-1.372,0.14-2.12,1.507
			c-0.783,1.438-1.172,2.911-1.162,4.418c0.006,1.448,0.443,2.848,1.311,4.197c0.869,1.35,2.018,2.414,3.447,3.193
			c1.209,0.661,2.361,0.849,3.456,0.563c1.096-0.285,1.953-0.997,2.574-2.137c0.686-1.254,0.838-2.588,0.458-4
			c-0.379-1.414-1.168-2.446-2.369-3.103c-1.35-0.736-2.514-0.211-3.49,1.578l-0.192,0.355L75.18,101.205z"/>
	</g>
</g>
<g id="圖層_2" display="none">
</g>
<g id="圖層_3" display="none">
	
		<image display="inline" overflow="visible" width="1667" height="1513" xlink:href="h1.png"  transform="matrix(0.0168 -0.02 0.02 0.0168 30.6558 101.8179)">
	</image>
</g>
</svg>
